<mxfile modified="2021-07-01T11:27:15.152Z" host="app.diagrams.net" agent="5.0 (Macintosh; Intel Mac OS X 10_15_7) AppleWebKit/537.36 (KHTML, like Gecko) Chrome/91.0.4472.114 Safari/537.36" etag="IxwNuIH7p7YfWNSzcIq6" version="14.8.2" type="github">
  <diagram name="Page-1" id="97a40813-6b03-0c74-37c1-0168de264b11">
    <mxGraphModel dx="332" dy="187" grid="1" gridSize="10" guides="1" tooltips="1" connect="1" arrows="1" fold="1" page="1" pageScale="1" pageWidth="500" pageHeight="300" background="#ffffff" math="0" shadow="0">
      <root>
        <mxCell id="0" />
        <mxCell id="1" parent="0" />
        <mxCell id="LzejV9Atnt9f4l5q0jPE-1" value="" style="whiteSpace=wrap;html=1;aspect=fixed;rounded=0;shadow=0;sketch=0;glass=0;imageAspect=1;id=testId1" vertex="1" parent="1">
          <mxGeometry x="110" y="110" width="80" height="80" as="geometry" />
        </mxCell>
        <mxCell id="LzejV9Atnt9f4l5q0jPE-2" value="" style="whiteSpace=wrap;html=1;aspect=fixed;" vertex="1" parent="1">
          <mxGeometry x="310" y="110" width="80" height="80" as="geometry" />
        </mxCell>
        <mxCell id="LzejV9Atnt9f4l5q0jPE-3" value="" style="rounded=0;whiteSpace=wrap;html=1;" vertex="1" parent="1">
          <mxGeometry x="190" y="140" width="120" height="20" as="geometry" />
        </mxCell>
        <mxCell id="LzejV9Atnt9f4l5q0jPE-4" value="A" style="ellipse;whiteSpace=wrap;html=1;aspect=fixed;fillOpacity=100;" vertex="1" parent="1">
          <mxGeometry x="135" y="135" width="30" height="30" as="geometry" />
        </mxCell>
      </root>
    </mxGraphModel>
  </diagram>
</mxfile>
